<svg id="cart" xmlns="http://www.w3.org/2000/svg" width="44" height="44" viewBox="0 0 44 44">
  <rect id="Rectangle_143" data-name="Rectangle 143" width="44" height="44" rx="12" fill="rgba(158,179,225,0.57)"/>
  <path id="iconmonstr-shopping-cart-3" d="M10,19.5A1.5,1.5,0,1,1,8.5,18,1.5,1.5,0,0,1,10,19.5ZM13.5,18A1.5,1.5,0,1,0,15,19.5,1.5,1.5,0,0,0,13.5,18Zm1.336-5,1.977-7H0l2.938,7h11.9ZM19.805,3,16.373,15H3.776l.839,2H17.854L21.328,5h1.929L24,3Z" transform="translate(10 10)" fill="#1f4699"/>
</svg>
