<svg xmlns="http://www.w3.org/2000/svg" width="44" height="44" viewBox="0 0 44 44">
  <g id="Group_295" data-name="Group 295" transform="translate(328 3036)">
    <rect id="Rectangle_143" data-name="Rectangle 143" width="44" height="44" rx="12" transform="translate(-328 -3036)" fill="#1f4699"/>
    <path id="iconmonstr-shopping-cart-14" d="M10,19.5A1.5,1.5,0,1,1,8.5,18,1.5,1.5,0,0,1,10,19.5ZM19.8,3,16.373,15h-2.1l2.542-9H10.82A6.559,6.559,0,0,1,11,7.5a6.481,6.481,0,0,1-7.691,6.386L4.615,17H17.854L21.328,5h1.929L24,3H19.8ZM13.5,18A1.5,1.5,0,1,0,15,19.5,1.5,1.5,0,0,0,13.5,18ZM9,7.5A4.5,4.5,0,1,1,4.5,3,4.5,4.5,0,0,1,9,7.5ZM7,7H5V5H4V7H2V8H4v2H5V8H7Z" transform="translate(-318 -3026)" fill="#fff"/>
  </g>
</svg>
