<svg id="notif" xmlns="http://www.w3.org/2000/svg" width="44" height="44" viewBox="0 0 44 44">
  <rect id="Rectangle_101" data-name="Rectangle 101" width="44" height="44" rx="12" fill="#b4c0da"/>
  <path id="iconmonstr-bell-1" d="M15.137,3.945A2.1,2.1,0,0,1,14.1,2.125v0a2.1,2.1,0,1,0-4.193,0v0a2.1,2.1,0,0,1-1.041,1.82C4.195,6.657,6.877,15.66,2,17.251V19H22V17.251C17.123,15.66,19.805,6.657,15.137,3.945ZM12,1a1,1,0,1,1-1,1A1,1,0,0,1,12,1Zm3,20a3.066,3.066,0,0,1-2.971,3A3.118,3.118,0,0,1,9,21Z" transform="translate(10 10)" fill="#1f4699"/>
</svg>
